<svg enable-background="new 0 0 32 32" version="1.1" viewBox="0 0 32 32" fill="#ecfeff" xml:space="preserve" xmlns="http://www.w3.org/2000/svg" xmlns:xlink="http://www.w3.org/1999/xlink">
    <g id="Glyph_NP_no_words">
        <polygon points="12.824,23.357 8.6,19.133 8.244,22.711 9.146,23.614  " />
        <rect height="1.032" transform="matrix(0.7071 -0.7071 0.7071 0.7071 -7.3948 16.5152)" width="11.558" x="10.459" y="16.668" />
        <rect height="1.032" transform="matrix(0.7071 -0.7071 0.7071 0.7071 -6.7998 15.0787)" width="11.558" x="9.023" y="15.232" />
        <rect height="1.031" transform="matrix(0.7071 -0.7071 0.7071 0.7071 -6.2048 13.6422)" width="11.558" x="7.586" y="13.795" />
        <path d="M16,32c8.837,0,16-7.163,16-16c0-8.837-7.163-16-16-16S0,7.163,0,16C0,24.837,7.163,32,16,32z M7.727,17.805L19.055,6.477   c0.751-0.75,1.976-0.749,2.728,0.002l3.724,3.725c0.752,0.752,0.753,1.976,0.002,2.727L14.174,24.264l-6.182,0.433l-0.865-0.864   L7.727,17.805z" />
        <path d="M24.801,12.223c0.361-0.361,0.36-0.95-0.002-1.312l-3.724-3.725c-0.362-0.362-0.951-0.361-1.313-0.002l-1.262,1.262   l5.039,5.039L24.801,12.223z" />
        <rect height="1.032" transform="matrix(0.7071 -0.7071 0.7071 0.7071 -7.9899 17.9518)" width="11.558" x="11.896" y="18.105" />
    </g>
</svg>